HIERARCHY
ROOT Hips
{
	OFFSET 0.000000 0.000000 0.000000 
	CHANNELS 6 Xposition Yposition Zposition Yrotation Zrotation Xrotation 
	JOINT Lumbar
	{
		OFFSET 0.000000 0.000000 0.000000 
		CHANNELS 3 Zrotation Xrotation Yrotation
		JOINT Neck
		{
			OFFSET 0.000000 0.445665 0.000000 
			CHANNELS 3 Zrotation Xrotation Yrotation
			End Site
			{
				OFFSET 0.000000 0.227535 0.000000 
			}
		}
		JOINT RightShoulder
		{
			OFFSET 0.019635 0.377685 0.194865 
			CHANNELS 3 Zrotation Xrotation Yrotation
			JOINT RightElbow
			{
				OFFSET 0.000000 -0.243375 0.000000 
				CHANNELS 2 Zrotation Yrotation
				JOINT RightWrist
				{
					OFFSET 0.000000 -0.264825 0.000000 
					CHANNELS 2 Zrotation Xrotation
					End Site
					{
						OFFSET 0.006600 -0.176220 0.000990 
					}
				}
			}
		}
		JOINT LeftShoulder
		{
			OFFSET 0.019635 0.377685 -0.194865 
			CHANNELS 3 Zrotation Xrotation Yrotation
			JOINT LeftElbow
			{
				OFFSET 0.000000 -0.243375 0.000000 
				CHANNELS 2 Zrotation Yrotation
				JOINT LeftWrist
				{
					OFFSET 0.000000 -0.264825 0.000000 
					CHANNELS 2 Zrotation Xrotation
					End Site
					{
						OFFSET 0.006600 -0.176220 -0.000990 
					}
				}
			}
		}
	}
	JOINT RightHip
	{
		OFFSET 0.052140 -0.069960 0.075570 
		CHANNELS 3 Zrotation Xrotation Yrotation
		JOINT RightKnee
		{
			OFFSET 0.000000 -0.402270 0.000000 
			CHANNELS 1 Zrotation
			JOINT RightAnkle
			{
				OFFSET 0.000000 -0.404085 0.000000 
				CHANNELS 3 Zrotation Xrotation Yrotation
				End Site
				{
					OFFSET 0.204105 -0.089430 0.008415 
				}
			}
		}
	}
	JOINT LeftHip
	{
		OFFSET 0.052140 -0.069960 -0.075570 
		CHANNELS 3 Zrotation Xrotation Yrotation
		JOINT LeftKnee
		{
			OFFSET 0.000000 -0.402270 0.000000 
			CHANNELS 1 Zrotation
			JOINT LeftAnkle
			{
				OFFSET 0.000000 -0.404085 0.000000 
				CHANNELS 3 Zrotation Xrotation Yrotation
				End Site
				{
					OFFSET 0.204105 -0.089430 -0.008415 
				}
			}
		}
	}
}
MOTION
Frames: 29
Frame Time: 0.02
-0 0.95578 0 181.92098 0 -3.36338 5.85571 3.50165 -5.28243 -11.83963 7.97115 0.06202 5.52147 -16.82664 10.19875 8.68298 87.50317 2.50582 3.87031 7.98339 0.58673 -7.97706 6.30126 -78.51019 -2.60115 -1.06151 -5.71369 8.32955 3.55381 -3.90687 2.93973 -4.09914 -4.94335 -3.86724 0.85678 -9.64489 -5.54857 7.45168 4.02292 5.94144
3e-05 0.95577 -0.00042 181.86513 0 -3.35645 5.92243 3.56181 -5.2853 -12.23399 7.6884 -0.07208 5.81048 -16.51379 9.3831 8.56396 87.47525 2.40269 3.82584 8.39911 0.89798 -7.88574 6.3308 -78.43368 -2.71963 -1.03883 -5.69649 8.34013 3.53455 -3.92858 2.95856 -3.93664 -4.87637 -3.86682 0.87029 -9.59217 -5.55663 7.45918 4.05031 5.93839
6e-05 0.95576 -0.00083 181.80947 0 -3.34946 5.98916 3.62199 -5.28842 -12.62839 7.40501 -0.20641 6.09921 -16.20014 8.56453 8.44457 87.44558 2.29912 3.78126 8.81481 1.21023 -7.79533 6.36053 -78.35741 -2.8375 -1.01632 -5.67938 8.35069 3.51588 -3.95017 2.97727 -3.77529 -4.81003 -3.86636 0.88378 -9.54009 -5.56474 7.46658 4.07787 5.93557
8e-05 0.95576 -0.00125 181.75418 0 -3.34236 6.05631 3.68251 -5.29228 -13.02533 7.1193 -0.34192 6.38934 -15.88356 7.74265 8.32358 87.41436 2.19479 3.73647 9.2332 1.52575 -7.70729 6.39061 -78.28176 -2.95374 -0.99455 -5.66244 8.36126 3.49881 -3.97152 2.9956 -3.61694 -4.74533 -3.86583 0.89733 -9.48986 -5.57297 7.47367 4.10666 5.93348
0.00011 0.95574 -0.00166 181.69714 0 -3.33608 6.12095 3.74084 -5.29186 -13.40706 6.84957 -0.4699 6.67171 -15.58652 6.95822 8.21228 87.39826 2.09687 3.69359 9.63581 1.81932 -7.6062 6.418 -78.20329 -3.07821 -0.96919 -5.64458 8.37174 3.47248 -3.99421 3.01588 -3.44267 -4.67157 -3.8658 0.91058 -9.4296 -5.58037 7.48242 4.12929 5.92733
0.00014 0.95574 -0.0021 181.64372 0 -3.32791 6.191 3.80402 -5.30078 -13.82173 6.54379 -0.61453 6.97042 -15.24572 6.08183 8.0798 87.34548 1.98391 3.6462 10.07242 2.16217 -7.53315 6.45164 -78.13054 -3.18542 -0.95124 -5.62866 8.38241 3.4663 -4.01399 3.03203 -3.30227 -4.61732 -3.86463 0.92445 -9.39075 -5.58966 7.48765 4.16471 5.92993
0.00015 0.95574 -0.00261 181.60045 0 -3.31531 6.27698 3.88064 -5.33412 -14.33233 6.14646 -0.80428 7.32205 -14.7922 5.02597 7.88991 87.22615 1.83816 3.5891 10.60922 2.63065 -7.53625 6.4993 -78.07496 -3.24395 -0.95593 -5.61806 8.3939 3.51537 -4.0264 3.03663 -3.25529 -4.61695 -3.86077 0.94047 -9.41107 -5.60375 7.483 4.23958 5.95644
0.00016 0.95574 -0.00316 181.56085 0 -3.30062 6.36829 3.96235 -5.37706 -14.87549 5.71022 -1.01154 7.68872 -14.29204 3.85898 7.67848 87.06354 1.67559 3.52699 11.17923 3.15213 -7.5683 6.5541 -78.02497 -3.28533 -0.96781 -5.60942 8.40554 3.58629 -4.03577 3.03697 -3.24281 -4.63763 -3.85556 0.95702 -9.45315 -5.62003 7.47486 4.32674 5.9919
0.00018 0.95574 -0.0037 181.51935 0 -3.2864 6.45666 4.04168 -5.41673 -15.40159 5.28685 -1.21116 8.04442 -13.80791 2.69728 7.47565 86.89759 1.51474 3.46518 11.7313 3.65577 -7.58746 6.60757 -77.97131 -3.33529 -0.9749 -5.59987 8.41694 3.64576 -4.04611 3.03948 -3.21413 -4.64696 -3.85076 0.97311 -9.48507 -5.63537 7.46834 4.40562 6.02344
0.00018 0.95574 -0.0042 181.47853 0 -3.27434 6.54736 4.12083 -5.45235 -15.93854 4.88633 -1.40804 8.41924 -13.34751 1.74047 7.27685 86.82765 1.37847 3.41126 12.29755 4.12975 -7.60388 6.6522 -77.92188 -3.38189 -0.98805 -5.59033 8.42904 3.70598 -4.05819 3.04147 -3.18628 -4.65829 -3.8472 0.99028 -9.51754 -5.64975 7.46147 4.49567 6.05424
0.00022 0.95574 -0.00478 181.43755 0 -3.25713 6.63429 4.20212 -5.49796 -16.45889 4.42587 -1.61651 8.75565 -12.82425 0.31306 7.06579 86.54889 1.18754 3.3403 12.83933 4.68215 -7.63492 6.71789 -77.86564 -3.43145 -0.99073 -5.58135 8.43974 3.77693 -4.06591 3.04296 -3.16665 -4.6774 -3.84027 1.00514 -9.55476 -5.66758 7.45477 4.56564 6.08885
0.00034 0.95571 -0.00555 181.39208 0 -3.22743 6.71068 4.28387 -5.57422 -16.94028 3.83498 -1.8383 9.00072 -12.15904 -2.23804 6.81522 85.69244 0.84511 3.21796 13.3291 5.4047 -7.68091 6.83185 -77.78308 -3.49311 -0.95912 -5.57278 8.44608 3.8084 -4.06197 3.04902 -3.14539 -4.65049 -3.82775 1.01473 -9.5943 -5.68774 7.44741 4.57511 6.13095
0.00049 0.95567 -0.00639 181.34704 0 -3.1924 6.78267 4.36859 -5.65863 -17.40074 3.17987 -2.07403 9.20299 -11.42867 -5.28636 6.55505 84.63009 0.44918 3.07928 13.78803 6.21124 -7.7434 6.96842 -77.69431 -3.55847 -0.91747 -5.56499 8.45094 3.85973 -4.05348 3.05389 -3.13372 -4.64033 -3.81076 1.02156 -9.63931 -5.7135 7.44089 4.56454 6.177
0.00062 0.95563 -0.0072 181.30365 0 -3.15903 6.85613 4.45447 -5.73648 -17.86153 2.53795 -2.31261 9.413 -10.71453 -8.20493 6.30648 83.66896 0.08071 2.95221 14.24645 7.00045 -7.8112 7.09977 -77.61277 -3.62219 -0.8827 -5.55709 8.45699 3.94649 -4.04772 3.05595 -3.12863 -4.66594 -3.79424 1.02911 -9.68487 -5.73986 7.43509 4.56424 6.22145
0.00076 0.95559 -0.008 181.25198 0 -3.12883 6.9328 4.52914 -5.82901 -18.36366 1.96409 -2.51227 9.67372 -10.05414 -10.7225 6.02677 82.67169 -0.30189 2.80892 14.77013 7.7009 -7.82861 7.2094 -77.51401 -3.68479 -0.83811 -5.54763 8.46149 3.85496 -4.04041 3.07163 -3.08039 -4.51736 -3.78633 1.03976 -9.71667 -5.74912 7.42381 4.55865 6.26427
0.00089 0.95555 -0.00882 181.21837 0 -3.09076 7.00066 4.62881 -5.88987 -18.7725 1.23137 -2.79701 9.81752 -9.26834 -14.19028 5.80973 81.70429 -0.6672 2.69355 15.14663 8.60876 -7.95115 7.3703 -77.44807 -3.75126 -0.81187 -5.54234 8.46807 4.12837 -4.0336 3.05919 -3.12156 -4.72499 -3.75686 1.04223 -9.78027 -5.8002 7.42505 4.56019 6.31271
0.00091 0.95553 -0.00969 181.22864 0 -3.03279 7.05356 4.78804 -5.8861 -18.94375 0.09712 -3.30434 9.65683 -8.1422 -20.166 5.76996 80.84364 -0.97442 2.67699 15.15401 10.03898 -8.38664 7.66039 -77.48605 -3.82452 -0.83532 -5.54158 8.48788 5.49821 -4.04428 2.96529 -3.42708 -6.00167 -3.68922 1.03129 -9.91362 -5.92652 7.45347 4.57761 6.36459
0.00091 0.95551 -0.01056 181.25858 0 -2.96718 7.09592 4.97396 -5.84545 -19.01878 -1.19767 -3.89768 9.37837 -6.89561 -27.07296 5.79338 80.02443 -1.26166 2.68597 15.00882 11.67911 -8.92088 8.0022 -77.55422 -3.90268 -0.87806 -5.54602 8.50874 7.21744 -4.05324 2.84398 -3.81849 -7.62025 -3.59515 1.01025 -10.08278 -6.10403 7.49593 4.60468 6.42464
0.00093 0.95549 -0.0114 181.28279 0 -2.9045 7.13798 5.15333 -5.80541 -19.12812 -2.43395 -4.4583 9.14864 -5.70914 -33.55723 5.78672 79.20463 -1.55632 2.67147 14.91355 13.24398 -9.39398 8.32525 -77.60191 -3.98002 -0.91433 -5.55282 8.5241 8.7147 -4.05265 2.73781 -4.15728 -9.02247 -3.50126 0.98875 -10.24515 -6.28102 7.53659 4.63268 6.48739
0.00091 0.95545 -0.01237 181.29168 0 -2.84317 7.2024 5.30912 -5.834 -19.27705 -3.61524 -4.9954 8.93778 -4.49183 -40.08246 5.78536 78.30397 -1.86037 2.70585 14.89837 14.73187 -9.94184 8.6305 -77.6814 -4.04951 -0.94105 -5.54064 8.55958 10.47775 -4.09385 2.61997 -4.55334 -10.67943 -3.46166 0.99002 -10.36366 -6.35381 7.55752 4.63663 6.52064
0.00098 0.95545 -0.01308 181.33939 0 -2.77823 7.2165 5.5205 -5.71056 -19.32026 -4.94367 -5.59814 8.66002 -3.31832 -46.70477 5.78825 77.58004 -2.13878 2.64552 14.68158 16.4225 -10.35027 8.983 -77.69756 -4.13902 -0.99174 -5.56804 8.55475 11.77205 -4.04977 2.52034 -4.85094 -11.89091 -3.29711 0.93955 -10.58698 -6.66622 7.62337 4.69436 6.62044
0.00131 0.95556 -0.01309 181.47062 0 -2.69668 7.10531 5.87662 -5.17837 -19.10061 -6.6777 -6.39133 8.22838 -2.23456 -53.63921 5.78641 77.37361 -2.35625 2.31029 13.93578 18.67389 -10.40822 9.46827 -77.5704 -4.26011 -1.10899 -5.71389 8.4265 11.6663 -3.75242 2.47453 -4.85077 -11.75221 -2.84257 0.76588 -11.04468 -7.53492 7.80511 4.8878 6.87351
0.00175 0.95569 -0.01285 181.64411 0 -2.61316 6.94179 6.28773 -4.49436 -18.7769 -8.54582 -7.2416 7.73355 -1.21171 -60.58469 5.78707 77.33887 -2.54729 1.88021 12.99406 21.11067 -10.31094 9.99604 -77.3726 -4.40481 -1.24854 -5.89757 8.25971 11.07949 -3.37266 2.44867 -4.74938 -11.15964 -2.2544 0.5376 -11.61283 -8.65804 8.03209 5.13649 7.19777
0.00217 0.9558 -0.01272 181.81015 0 -2.53641 6.79498 6.67562 -3.87807 -18.49735 -10.32809 -8.04616 7.26621 -0.19983 -67.34585 5.78707 77.19855 -2.74702 1.49841 12.1488 23.42937 -10.24672 10.49493 -77.17985 -4.55416 -1.3749 -6.05694 8.11857 10.72728 -3.04268 2.41573 -4.69754 -10.79923 -1.69526 0.32267 -12.16382 -9.72843 8.24188 5.36756 7.50912
0.00248 0.95597 -0.01263 181.92576 0 -2.43548 6.67768 7.05869 -3.26454 -18.22785 -12.22497 -8.93831 6.79891 0.9836 -74.90185 5.78659 77.16925 -2.96053 1.0959 11.2678 25.90317 -10.34605 11.03756 -77.09669 -4.64105 -1.51582 -6.24601 7.94378 10.32369 -2.66089 2.37324 -4.63387 -10.34331 -1.26798 0.15453 -12.58652 -10.54444 8.43936 5.56974 7.74196
0.00303 0.95603 -0.01238 182.15802 0 -2.38344 6.48659 7.46238 -2.61135 -17.91372 -13.90812 -9.65907 6.31935 1.78851 -80.78644 5.78774 76.95726 -3.13881 0.71333 10.41551 28.08904 -10.06428 11.49655 -76.77524 -4.8607 -1.63022 -6.38281 7.82905 9.90344 -2.36706 2.356 -4.56945 -9.9717 -0.53595 -0.12233 -13.28972 -11.93832 8.67127 5.84209 8.15103
0.00428 0.95579 -0.01176 182.68618 0 -2.47636 6.10489 7.92756 -1.87144 -17.50409 -15.00785 -9.90365 5.81102 1.60664 -82.09964 5.7859 76.12723 -3.23048 0.41227 9.70079 29.48582 -8.78583 11.73025 -75.75037 -5.46563 -1.67677 -6.3601 7.89709 9.5947 -2.34028 2.4017 -4.5293 -9.96211 1.01524 -0.69925 -14.84727 -14.96252 9.00183 6.32027 9.06417
0.00576 0.95546 -0.01099 183.33282 0 -2.61677 5.65074 8.40799 -1.09964 -17.05309 -15.87968 -9.97121 5.29512 1.03749 -81.7168 5.78709 75.12017 -3.28687 0.13401 9.02001 30.57575 -7.12476 11.87485 -74.49891 -6.19859 -1.69399 -6.28452 8.02545 9.2765 -2.40437 2.47277 -4.49117 -10.0476 2.8658 -1.38099 -16.66319 -18.53845 9.3624 6.86231 10.1454
0.0071 0.95518 -0.01029 183.93597 0 -2.7293 5.2296 8.86964 -0.3521 -16.6201 -16.829 -10.1122 4.79006 0.6161 -82.0753 5.79046 74.24146 -3.35682 -0.1572 8.31839 31.77145 -5.62754 12.04964 -73.39314 -6.85708 -1.71712 -6.23703 8.12133 8.93489 -2.42394 2.5334 -4.45059 -10.0763 4.5732 -2.00628 -18.29054 -21.80144 9.69989 7.35828 11.12711
